<svg fill="none" height="40" viewBox="0 0 155 40" width="155" xmlns="../../external.html?link=http://www.w3.org/2000/svg"><g clip-rule="evenodd" fill="#fff" fill-rule="evenodd"><path d="M7.99 9.227h.112c.787-2.25 2.56-3.544 5.429-3.544 2.812 0 4.557 1.21 5.091 3.544h.113c.45-2.166 2.616-3.544 5.4-3.544 3.91 0 5.148 2.193 5.148 5.176v19.55h-7.538V13.446c0-1.069-.084-2.195-1.575-2.195-1.49 0-1.547 1.125-1.547 2.195v16.962h-7.51V13.446c0-1.069-.112-2.195-1.575-2.195-1.49 0-1.547 1.125-1.547 2.195v16.962H.48V5.992h7.51zm30.04 5.682v-3.32c0-.955.563-1.462 1.632-1.462 1.097 0 1.631.507 1.631 1.463v3.32zm11.084 4.05v-6.385c0-5.26-4.445-6.891-9.451-6.891-6.076 0-9.452 2.474-9.452 6.891v11.645c0 4.53 4.473 6.498 9.452 6.498 5.513 0 9.451-1.773 9.451-6.385V20.76h-7.82v3.152c0 1.462-.394 2.362-1.631 2.362-1.041 0-1.631-.9-1.631-2.362V18.96h11.082zm8.663-6.048c0-1.068.703-1.66 1.66-1.66.928 0 1.63.59 1.63 1.66v10.577c0 1.068-.703 1.66-1.63 1.66-.957 0-1.66-.592-1.66-1.66zm3.291 17.497h7.82V0h-7.82v9.31h-.112c-.703-2.221-2.672-3.627-5.541-3.627-3.967 0-5.457 2.306-5.457 5.428v13.502c0 2.925 1.294 6.104 5.597 6.104 2.869 0 5.008-.957 5.4-3.376h.113zM69.76 5.992h7.82v24.416h-7.82zm0-5.992h7.82v4.332h-7.82zM86.3 21.49c0-1.94 1.745-2.475 3.263-3.431v4.248c0 2.166-.196 3.093-1.828 3.093-.73 0-1.436-.421-1.436-1.265zm3.262 8.918h7.82V12.35c0-4.922-4.753-6.666-9.451-6.666-4.699 0-9.45 1.743-9.45 6.666v2.25h7.818v-2.672c0-.985.338-1.8 1.632-1.8s1.63.815 1.63 1.8c0 4.529-11.082 3.741-11.082 10.155v3.629c0 3.206 2.082 5.006 5.485 5.006 3.123 0 4.557-1.435 5.513-3.179h.084v2.87zM98.282 0h7.82v30.408h-7.82zm8.748 5.992h7.82v24.416h-7.82zm0-5.992h7.82v4.332h-7.82zm16.539 9.03h.114c.732-2.138 2.616-3.347 5.682-3.347 3.517 0 5.288 2.11 5.288 5.597v19.13h-7.82V13.445c0-1.069-.085-2.195-1.574-2.195-1.492 0-1.69 1.125-1.69 2.195v16.962h-7.818V5.992h7.818zm19.607 5.88v-3.32c0-.956.563-1.463 1.66-1.463 1.069 0 1.63.507 1.63 1.463v3.32zm11.111 4.049v-6.385c0-5.26-4.472-6.891-9.452-6.891-6.104 0-9.48 2.474-9.48 6.891v11.645c0 4.53 4.474 6.498 9.48 6.498 5.485 0 9.452-1.773 9.452-6.385V20.76h-7.821v3.152c0 1.462-.421 2.362-1.63 2.362-1.041 0-1.66-.9-1.66-2.362V18.96h11.111zM0 35.02l1.575 4.782h.873l.843-3.009.844 3.01h.872l1.575-4.783h-.928l-.816 2.841-.816-2.841h-.871l-.845 2.841-.815-2.841zm9.198 0 1.575 4.782h.872l.873-3.009.815 3.01h.9l1.575-4.783h-.928l-.844 2.841-.816-2.841h-.872l-.815 2.841-.844-2.841zm9.226 0L20 39.803h.872l.843-3.009.845 3.01h.872l1.575-4.783h-.93l-.815 2.841-.815-2.841h-.872l-.816 2.841-.844-2.841zm9.002 3.995.956.984.956-.984-.956-.957zm5.541-3.995v4.782h1.435v-2.336c0-.533 0-1.546.675-1.546.534 0 .534.562.534.984v2.898h1.407V37.44c0-.646.028-1.519.675-1.519.534 0 .534.563.534.984v2.898h1.434V36.54c0-.872-.394-1.603-1.406-1.603-.479 0-1.041.252-1.35.844-.225-.646-.788-.844-1.266-.844-.507 0-1.04.225-1.35.844l-.057-.76h-1.265zm14.318 2.11c0-1.042-.478-2.194-1.941-2.194-1.153 0-2.222.871-2.222 2.474 0 1.464.9 2.476 2.279 2.476.787 0 1.406-.338 1.687-.506l-.366-.703c-.198.111-.619.365-1.012.365-.647 0-1.07-.478-1.07-1.632h2.645zm-2.616-.394c.028-.507.169-1.07.703-1.07.619 0 .619.872.619 1.07zm8.607-3.938v2.898c-.112-.198-.421-.76-1.153-.76-.928 0-1.688.871-1.688 2.474 0 1.351.563 2.476 1.631 2.476.394 0 .872-.112 1.323-.844l.056.76h1.265v-7.005h-1.434zm-1.35 4.612c0-.674.112-1.49.675-1.49.507 0 .676.592.676 1.49 0 .451-.056 1.492-.676 1.492-.535 0-.675-.675-.675-1.492zm6.413-3.91.9.9.9-.9-.9-.899zm.197 1.52v4.782h1.407V35.02zm8.945 4.782c-.14-.562-.14-1.406-.14-1.743v-1.576c0-.928-.563-1.547-1.913-1.547-.619 0-1.182.168-1.8.45l.31.76c.252-.141.674-.339 1.152-.339.59 0 .872.227.872.817-1.688.562-2.587.956-2.587 1.968 0 .648.45 1.295 1.322 1.295.59 0 1.04-.281 1.35-.817l.084.732zm-1.52-2.25c0 .647-.056 1.463-.703 1.463-.252 0-.562-.198-.562-.619 0-.478.31-.676 1.265-1.097v.253zM71.11 32.8v7.004h1.434V32.8zm5.062.703.9.9.9-.9-.9-.9zm.169 1.519v4.782h1.436V35.02zm5.261 0v4.782h1.435v-2.7c0-.59.225-1.182.704-1.182.562 0 .532.703.532 1.04v2.842h1.436v-3.32c0-.9-.45-1.547-1.407-1.547-.42 0-1.013.14-1.378.844l-.056-.76zm11.73 2.11c0-1.042-.479-2.194-1.914-2.194-1.182 0-2.222.871-2.222 2.474 0 1.464.9 2.476 2.279 2.476.786 0 1.406-.338 1.687-.506l-.392-.703c-.17.111-.62.365-1.013.365-.647 0-1.069-.478-1.069-1.632h2.644v-.28zm-2.588-.394c.028-.507.168-1.07.704-1.07.618 0 .618.872.618 1.07zm6.048-1.716v4.782h1.434v-2.7c0-.59.197-1.182.676-1.182.591 0 .562.703.562 1.04v2.842h1.436v-3.32c0-.9-.451-1.547-1.407-1.547-.423 0-1.013.14-1.378.844l-.084-.76zm11.73 2.11c0-1.042-.479-2.194-1.914-2.194-1.182 0-2.249.871-2.249 2.474 0 1.464.928 2.476 2.306 2.476.759 0 1.406-.338 1.687-.506l-.394-.703c-.196.111-.617.365-1.011.365-.646 0-1.069-.478-1.069-1.632h2.644zm-2.589-.394c0-.507.14-1.07.676-1.07.619 0 .619.872.619 1.07zm5.485-1.716 1.576 4.782h.899l.844-3.009.816 3.01h.9l1.576-4.783h-.929l-.843 2.841-.788-2.841h-.9l-.816 2.841-.817-2.841zm12.378.168a2.897 2.897 0 0 0-1.182-.252c-1.041 0-1.716.646-1.716 1.407 0 .646.421 1.068 1.068 1.49l.17.113c.421.28.619.421.619.703 0 .31-.254.451-.535.451-.421 0-.786-.17-1.013-.28l-.309.73c.435.224.917.34 1.406.338 1.182 0 1.774-.73 1.774-1.52 0-.702-.479-1.097-1.125-1.518l-.197-.14c-.479-.31-.563-.45-.563-.62 0-.195.168-.365.506-.365s.618.114.816.198zm3.374 3.827.986.984.955-.984-.955-.957zm8.974-3.77c-.451-.198-.843-.31-1.351-.31-1.349 0-2.362.928-2.362 2.474 0 1.351.786 2.476 2.251 2.476.73 0 1.236-.252 1.518-.394l-.366-.73c-.197.113-.505.28-.87.28-.789 0-1.014-.928-1.014-1.66 0-1.153.535-1.603 1.098-1.603.338 0 .619.113.759.198zm2.953 2.221c0 1.351.788 2.42 2.194 2.42 1.463 0 2.279-1.098 2.279-2.531 0-1.238-.648-2.42-2.167-2.42-1.49.001-2.306 1.099-2.306 2.531zm1.519-.083c0-.844.085-1.687.732-1.687.533 0 .704.59.704 1.66 0 1.152-.227 1.8-.733 1.8-.562 0-.703-.76-.703-1.773zm6.442-2.363v4.782h1.436v-2.336c0-.533 0-1.546.674-1.546.507 0 .507.562.507.984v2.898h1.434V37.44c0-.646.029-1.519.676-1.519.534 0 .534.563.534.984v2.898h1.434V36.54c0-.872-.392-1.603-1.406-1.603-.506 0-1.042.252-1.35.844-.226-.646-.788-.844-1.267-.844-.505 0-1.041.225-1.349.844l-.056-.76h-1.267z"/></g></svg>