<svg xmlns="http://www.w3.org/2000/svg" xml:space="preserve" width="231.68" height="40.755" style="shape-rendering:geometricPrecision;text-rendering:geometricPrecision;image-rendering:optimizeQuality;fill-rule:evenodd;clip-rule:evenodd" viewBox="0 0 6130 1078"><defs><style>.fil2{fill:#d7901d}.fil1{fill:#fffbf6}.fil3{fill:#fefefe;fill-rule:nonzero}</style></defs><g id="Слой_x0020_1"><g id="_278529080"><g><path d="M103 517c0 133 11 183 70 295 8 15 17 27 26 40 86 125 251 222 404 222 133 0 183-11 296-70 31-17 83-59 108-83 12-13 16-21 28-33l52-70c4-8 6-13 11-22 54-96 62-167 62-279 0-124-66-260-153-347-37-37-79-66-125-91-10-6-8-6-20-12C706-2 559 0 404 66c-47 20-111 68-148 104-23 24-63 74-80 103-38 67-73 158-73 244z" style="fill:#f5a623"/><path class="fil1" d="M577 61C326 91 114 314 147 603c29 249 256 460 543 427 248-29 459-256 426-542-29-247-255-460-539-427z"/><path class="fil2" d="M417 493c-13 12-21 10-17 40 4 33 24 65 26 98 1 27-6 32 5 54 22 6 25 0 43-6 9 15 32 21 52 26-52 35-52 92-8 132-90 3-95 94-25 116 32 10 191 8 215-9-8-7-21-5-32-4-57 6-202 29-218-30-7-25 5-43 19-52 47-32 183 26 184-33-29-7-62 4-90-8-35-14-18-46-38-59-9 23 10 55 25 65 25 16 55 8 86 10-42 33-185 2-140-89 25-50 58-31 87-30 44 2 80-1 123-7-11 40-79 68-128 58-7-1-14-3-21 0 9 14 29 14 46 13 28-1 65-13 85-30l25-24 3-3c1 0 2-1 3-2 10 21 33 44 24 80-7 23-34 47-65 46 15-12 28-19 38-37 10-19 6-49-3-64-15 6-5 0-13 16-14 32-25 29-56 36 15 29 54-13 66-23 3 58-39 47-47 77l13 6c5 1 10 1 15 1-10 3-22 10-26 22 28-1 79-56 111-14 11 15 13 42 2 58-17 25-42 13-60 21 1 3-1 10 23 9 72-5 84-114-12-113 31-47 43-71-10-135 25-12 38-11 56-28 14 14 18 14 41 7 9-19 4-64 16-101 10-30 25-62 7-82l-9-8c55-145-38-275-211-272-88 1-145 24-183 72-51 62-50 115-27 200z"/><path class="fil1" d="M580 354c-126 25-157 106-136 221 10 56 19 98 67 115 54 19 256 36 287-56 13-41 30-110 20-156-21-98-122-148-238-124z"/><path class="fil1" d="M422 466c21-34 19-62 70-97 79-56 255-47 313 40 13 19 20 42 30 56 44-200-161-268-306-217-35 12-47 25-68 46-52 49-47 94-39 172z" style="stroke:#fffbf6;stroke-width:7.62"/><path class="fil2" d="M537 219c85-17 97-18 184-1-6-149-193-123-184 1z"/><path class="fil1" d="M550 202c64-13 92-12 157-2-6-43-33-72-80-70-46 1-71 30-77 72zM439 673c12 6 2 4 17 3-5-28-18-53-23-79s-6-61-13-87c-2 0-17-12-7 30 3 14 7 27 13 41 23 62 4 66 13 92z"/><path class="fil2" d="M540 932c33 15 89-30 111-50 11-10 7-3 7-14-18 0-40 35-80 51-30 11-26-2-38 13zM777 514c-23 0-17 26-52 30-45 6-35-21-58-32 5 65 99 48 110 2zM587 513l-5 4c-5 7-9 30-48 28-31-2-36-25-54-33 18 66 128 44 107 1z"/><path class="fil2" d="M505 867c17 11 18-9 55 2 26 8 28 19 44 26-3-33-72-54-99-28zM618 426c-16 12 2 37 19 27 20-10 1-42-19-27zM766 904c-14 8-25 6-35 13 30 29 73-44 28-45 4 13 9 11 7 32z"/><path class="fil1" d="M824 594c8-20 30-65 15-86-9 11-15 74-15 86z"/><path class="fil2" d="M671 647c-18 1-18 11-39 13-20 1-31-9-45-12 5 15 23 20 41 20 20 0 36-10 43-21z"/><path class="fil1" d="M798 676c6 1 3 2 8 0 9-2 6-1 10-3l4-74c-3 25-16 49-22 77z"/></g><path class="fil3" d="M1792 801c0 3-1 7-1 10s-1 5-1 8l-3 6c-1 2-3 5-7 8-3 3-10 8-21 15-10 8-24 15-40 22-16 6-35 12-56 17s-44 8-70 8c-40 0-77-7-110-21-34-14-62-35-85-63-23-27-41-61-54-101-12-40-19-86-19-137 0-53 7-100 20-142 14-42 33-78 57-107s53-52 87-67c34-16 72-23 113-23 19 0 38 1 56 5 19 4 35 8 51 14 15 5 29 12 41 19s21 13 25 18c5 4 8 7 9 9s2 5 3 7c0 3 1 5 1 9 0 3 1 6 1 10 0 5-1 9-1 13-1 3-1 6-3 9-1 2-2 4-4 6-2 1-4 2-6 2-5 0-11-4-20-11-8-6-20-14-34-22-13-8-30-16-51-23-20-7-44-10-71-10-31 0-59 6-84 18-26 13-48 30-66 54s-32 53-42 88c-11 35-16 75-16 120 0 43 5 81 14 115 10 33 23 61 41 84s40 40 66 52 56 18 89 18c27 0 50-3 71-10 20-6 37-14 52-22 14-9 26-16 35-23s17-10 22-10c2 0 3 0 5 1 1 1 2 2 3 5 1 2 1 5 2 8 0 4 1 8 1 14z"/><path id="1" class="fil3" d="M2307 647c0 36-4 69-14 100-9 30-23 56-42 79-18 22-41 40-69 52-28 13-60 19-97 19-35 0-66-6-93-17-26-11-49-27-67-48-17-21-31-46-40-76s-13-63-13-101c0-36 5-69 14-99 9-31 23-57 41-79 19-23 42-40 70-52 28-13 60-19 97-19 36 0 67 6 93 17 27 11 49 27 67 47 17 21 31 47 40 76 9 30 13 64 13 101zm-63 5c0-25-3-50-8-73-5-24-13-44-25-62-11-18-27-32-47-43-20-10-44-16-73-16-27 0-51 5-70 15-20 10-36 23-49 40-12 18-21 38-27 61s-9 49-9 76c0 26 2 51 7 74 5 24 13 44 25 62s28 32 47 42c20 10 44 16 74 16 27 0 50-5 70-15 19-10 35-23 48-40 12-17 22-37 28-61 6-23 9-48 9-76z"/><path id="2" class="fil3" d="M2501 879c0 2-1 4-2 5-1 2-2 3-4 4s-6 2-9 3c-4 1-9 1-15 1s-10 0-14-1-7-2-10-3c-2-1-4-2-4-4-1-1-2-3-2-5V425c0-2 1-3 2-5 0-2 2-3 4-4 3-2 6-3 10-3 4-1 8-1 14-1s11 0 15 1c3 0 7 1 9 3 2 1 3 2 4 4s2 3 2 5v454zm9-607c0 17-3 27-8 33-6 6-16 9-31 9s-25-3-31-9c-5-5-8-16-8-32s3-27 9-33c5-6 16-8 31-8 14 0 25 2 30 8 5 5 8 16 8 32z"/><path id="3" class="fil3" d="M3036 879c0 2-1 4-2 5-1 2-2 3-5 4-2 1-5 2-9 3s-8 1-14 1-11 0-15-1c-3-1-7-2-9-3s-3-2-4-4c-1-1-2-3-2-5V609c0-28-2-51-6-68-5-18-11-33-20-45-9-13-20-22-33-29-14-7-30-11-48-11-23 0-46 9-69 25s-47 40-72 72v326c0 2-1 4-2 5-1 2-3 3-5 4s-5 2-9 3-8 1-14 1-11 0-15-1-7-2-9-3-4-2-5-4c-1-1-1-3-1-5V425c0-2 0-3 1-5s3-3 5-4c2-2 5-3 9-3 3-1 8-1 14-1 5 0 10 0 14 1 3 0 6 1 8 3 2 1 3 2 4 4s1 3 1 5v64c27-29 52-50 77-63s50-20 75-20c30 0 55 5 75 15s37 24 49 41c13 17 22 37 27 59 6 23 9 51 9 83v275z"/><path id="4" class="fil3" d="M3849 879c0 2-1 4-2 5-1 2-3 3-5 4s-5 2-9 3-8 1-14 1-11 0-15-1-7-2-9-3-4-2-5-4c-1-1-1-3-1-5V599c0-21-2-41-6-58-4-18-10-33-18-45-8-13-19-22-31-29s-27-11-44-11c-21 0-43 9-64 25-22 16-46 40-71 72v326c0 2-1 4-2 5-1 2-2 3-5 4-2 1-5 2-9 3s-8 1-14 1-10 0-14-1-7-2-10-3c-2-1-4-2-5-4 0-1-1-3-1-5V599c0-21-2-41-6-58-4-18-10-33-18-45-8-13-19-22-31-29-13-7-27-11-45-11-21 0-42 9-63 25-22 16-46 40-71 72v326c0 2 0 4-1 5-1 2-3 3-5 4s-5 2-9 3-9 1-15 1-10 0-14-1-7-2-9-3c-3-1-4-2-5-4-1-1-1-3-1-5V425c0-2 0-3 1-5s2-3 5-4c2-2 5-3 8-3 4-1 8-1 14-1s10 0 14 1c4 0 7 1 9 3 2 1 3 2 4 4s1 3 1 5v64c26-29 51-50 74-63 24-13 47-20 70-20 19 0 36 2 51 7 15 4 28 11 39 19 12 8 22 18 30 30 8 11 14 24 19 37 16-17 31-32 45-44 13-12 27-21 39-29 13-7 25-12 36-15 12-3 24-5 35-5 29 0 53 5 72 15 20 10 35 24 47 41s20 37 26 59c5 23 8 47 8 73v285z"/><path id="5" class="fil3" d="M4415 647c0 36-4 69-14 100-9 30-23 56-42 79-18 22-41 40-69 52-28 13-60 19-97 19-35 0-66-6-93-17-26-11-49-27-67-48-17-21-31-46-40-76s-13-63-13-101c0-36 5-69 14-99 9-31 23-57 41-79 19-23 42-40 70-52 28-13 60-19 97-19 36 0 67 6 93 17 27 11 49 27 67 47 17 21 31 47 40 76 9 30 13 64 13 101zm-63 5c0-25-3-50-8-73-5-24-13-44-25-62-11-18-27-32-47-43-20-10-44-16-73-16-27 0-51 5-70 15-20 10-36 23-49 40-12 18-21 38-27 61s-9 49-9 76c0 26 2 51 7 74 5 24 14 44 25 62 12 18 28 32 47 42 20 10 44 16 74 16 27 0 50-5 70-15 19-10 35-23 48-40 12-17 22-37 28-61 6-23 9-48 9-76z"/><path id="6" class="fil3" d="M4917 879c0 2 0 4-1 5-2 2-3 3-5 4s-5 2-9 3-9 1-14 1c-7 0-11 0-15-1s-7-2-9-3-4-2-5-4c-1-1-2-3-2-5V609c0-28-2-51-6-68-4-18-11-33-20-45-8-13-19-22-33-29-13-7-29-11-47-11-23 0-46 9-69 25s-48 40-73 72v326c0 2-1 4-2 5-1 2-2 3-4 4s-5 2-9 3-9 1-15 1-10 0-14-1-7-2-10-3c-2-1-4-2-4-4-1-1-2-3-2-5V425c0-2 1-3 2-5 0-2 2-3 4-4 3-2 6-3 9-3 4-1 8-1 14-1s10 0 14 1c4 0 7 1 8 3 2 1 4 2 5 4s1 3 1 5v64c26-29 52-50 77-63s50-20 74-20c30 0 55 5 75 15 21 10 37 24 50 41 12 17 21 37 27 59 5 23 8 51 8 83v275z"/><path id="7" class="fil3" d="M5429 878c0 2-1 4-2 6s-2 3-4 4c-3 1-6 2-10 3s-9 1-16 1c-6 0-12 0-16-1-5 0-8-1-12-2-3-1-5-2-8-4l-6-6-213-258v258c0 2 0 4-1 5-1 2-3 3-5 4s-5 2-9 3-8 1-14 1-11 0-15-1-7-2-9-3-4-2-5-4c-1-1-1-3-1-5V202c0-2 0-3 1-5s3-3 5-4c2-2 5-2 9-3 4 0 9-1 15-1s10 1 14 1c4 1 7 1 9 3 2 1 4 2 5 4s1 4 1 5v418l191-193c3-3 6-5 9-7s6-3 9-4c3-2 7-3 12-3 4-1 9-1 14-1 6 0 11 0 15 1 4 0 8 1 10 2 3 1 5 2 6 4 2 1 3 3 3 5 0 4-2 7-4 10-1 3-5 7-10 12l-182 172 203 240c4 5 7 9 8 12 2 3 3 5 3 8z"/><path id="8" class="fil3" d="M5793 758c0 21-4 41-12 58s-20 32-35 44-32 21-53 27c-21 7-44 10-69 10-16 0-31-1-45-4-14-2-26-5-38-9-11-4-21-8-28-13-8-4-14-8-18-11s-6-8-8-13-2-11-2-20c0-4 0-8 1-11 0-3 1-6 2-9 1-2 2-4 4-5s4-2 6-2c3 0 9 3 16 7 7 5 16 10 26 16 11 5 23 10 38 15 14 4 31 7 50 7 16 0 30-2 42-5 13-4 24-9 34-15 9-7 16-16 21-26 6-11 8-23 8-37s-3-26-10-35c-7-10-15-19-26-26s-23-13-37-19c-14-5-28-11-43-17-14-6-29-12-43-19-13-7-26-16-37-26-10-10-19-22-26-36s-10-31-10-51c0-15 3-31 9-46s15-29 28-41c12-12 28-22 48-29 19-7 43-11 69-11 12 0 23 1 34 3s22 4 31 7 17 6 24 10c6 3 11 6 15 9 3 3 6 5 7 7s2 3 2 6c1 2 1 4 2 7v10c0 4 0 8-1 11 0 3-1 6-2 8-1 3-2 4-4 6-1 1-3 1-5 1-3 0-7-2-12-5-5-4-12-8-21-12s-19-8-31-12-26-6-42-6c-15 0-29 2-41 6s-22 9-29 15c-8 7-14 15-18 24s-5 19-5 30c0 14 3 27 10 37 6 10 15 18 26 26 11 7 24 14 38 19 14 6 28 12 43 17 14 6 28 12 42 19s27 15 38 25 20 21 27 35c6 13 10 30 10 49z"/></g></g></svg>