<svg fill="none" height="138" viewBox="0 0 171 138" width="171" xmlns="../../external.html?link=http://www.w3.org/2000/svg"><g fill="#fff"><path clip-rule="evenodd" d="M102.457 84.855c0-17.113-8.443-32.253-21.392-41.483-7.25 8.102-17.786 13.201-29.514 13.201s-22.265-5.099-29.514-13.2C9.088 52.602.645 67.743.645 84.855c0 28.114 22.791 50.906 50.906 50.906s50.906-22.792 50.906-50.907zm-50.906-16.97c9.372 0 16.969 7.598 16.969 16.97s-7.597 16.968-16.969 16.968c-9.371 0-16.969-7.597-16.969-16.968s7.598-16.97 16.969-16.97z" fill-rule="evenodd"/><path d="M68.52 16.98C68.52 7.608 60.923.01 51.55.01c-9.37 0-16.968 7.598-16.968 16.97 0 9.371 7.597 16.968 16.969 16.968 9.371 0 16.969-7.597 16.969-16.968zM113.77 52.048h33.937v83.713H113.77z"/><path d="M170.332.321a51.458 51.458 0 0 0-5.656-.31c-28.115 0-50.906 22.791-50.906 50.906s22.791 50.906 50.906 50.906c1.912 0 3.799-.105 5.656-.31V66.92a16.94 16.94 0 0 1-5.656.966c-9.372 0-16.969-7.597-16.969-16.969s7.597-16.969 16.969-16.969c1.983 0 3.887.34 5.656.966z"/></g></svg>